<svg version="1.1" xmlns="http://www.w3.org/2000/svg" viewBox="0 0 253.26080643788987 330.6733870712558" width="253.26080643788987" height="330.6733870712558"><!-- svg-source:excalidraw --><metadata></metadata><defs><style class="style-fonts">
      </style></defs><rect x="0" y="0" width="253.26080643788987" height="330.6733870712558" fill="#ffffff"></rect><g stroke-linecap="round" transform="translate(39.1536841228675 10) rotate(0 89.60002136230469 17.99999237060547)"><path d="M45.48 3.14 C56.01 1.14, 72.32 -1.56, 85.73 -1.75 C99.13 -1.95, 113.39 0.2, 125.91 1.97 C138.43 3.75, 152.28 6.94, 160.86 8.88 C169.44 10.82, 175.33 11.08, 177.37 13.64 C179.41 16.19, 177.56 21.29, 173.08 24.2 C168.59 27.11, 160.34 29, 150.47 31.09 C140.59 33.17, 126.71 35.79, 113.84 36.72 C100.96 37.65, 86.93 37.32, 73.21 36.66 C59.49 35.99, 42.48 34.52, 31.53 32.73 C20.59 30.93, 12.98 28.52, 7.53 25.89 C2.08 23.27, -2.2 20.1, -1.18 16.96 C-0.16 13.83, -4.52 9.88, 13.65 7.08 C31.82 4.27, 83.2 -0.22, 107.83 0.13 C132.47 0.48, 161.45 8.85, 161.46 9.17 M87.4 -2.77 C100.27 -2.7, 114.93 0.73, 127.08 2.63 C139.23 4.54, 151.92 6.79, 160.28 8.68 C168.65 10.58, 175.34 11.12, 177.29 14.02 C179.24 16.92, 176.53 22.89, 171.97 26.07 C167.41 29.25, 160 31.38, 149.94 33.12 C139.89 34.86, 124.9 36.26, 111.64 36.51 C98.38 36.76, 83.38 35.57, 70.39 34.63 C57.39 33.68, 44.03 32.75, 33.69 30.86 C23.36 28.97, 14.02 25.41, 8.38 23.29 C2.73 21.16, -1.79 20.83, -0.18 18.13 C1.42 15.44, 9.88 9.36, 17.98 7.11 C26.09 4.87, 36.37 5.65, 48.45 4.67 C60.53 3.69, 83.84 2.17, 90.45 1.22 C97.07 0.27, 88.77 -1.43, 88.13 -1.02" stroke="#1e1e1e" stroke-width="4" fill="none"></path></g><g stroke-linecap="round"><g transform="translate(39.95370243341438 27.600021362304688) rotate(0 -2 19.599990844726562)"><path d="M-1.16 -0.36 C-1.69 6.12, -2.4 31.52, -2.88 38.29 M0.43 -1.6 C-0.19 5.06, -2.36 32.67, -3.24 39.35" stroke="#1e1e1e" stroke-width="4" fill="none"></path></g></g><mask></mask><g stroke-linecap="round"><g transform="translate(218.75369022638313 27.200027465820312) rotate(0 -1.20001220703125 19.599990844726562)"><path d="M0.43 -0.09 C0.11 6.19, -1.27 31.55, -1.81 38.03 M-0.8 -1.18 C-1.23 5.16, -1.95 32.1, -2.45 38.95" stroke="#1e1e1e" stroke-width="4" fill="none"></path></g></g><mask></mask><g stroke-linecap="round"><g transform="translate(35.67046837482826 65.54637800961041) rotate(0 -12.089145234184173 109.67917464739554)"><path d="M-0.47 -0.78 C-4.35 6.88, -20.7 8.98, -24.06 45.55 C-27.42 82.12, -21.46 189.75, -20.62 218.65 M1.49 1.42 C-2.48 9.32, -21.65 10.66, -24.94 47.02 C-28.23 83.38, -19.34 190.79, -18.26 219.6" stroke="#1e1e1e" stroke-width="4" fill="none"></path></g></g><mask></mask><g stroke-linecap="round"><g transform="translate(217.1000444279914 65.58092901475163) rotate(0 12.089145234184173 109.67917464739554)"><path d="M-0.58 -0.18 C3.48 7.31, 19.75 8.77, 23.23 45.27 C26.71 81.77, 20.81 190.01, 20.28 218.83 M1.32 -1.32 C5.84 6.3, 22.35 9.73, 25.44 46.6 C28.53 83.46, 20.69 191.18, 19.88 219.87" stroke="#1e1e1e" stroke-width="4" fill="none"></path></g></g><mask></mask><g stroke-linecap="round"><g transform="translate(15.515582960953168 283.0091312831514) rotate(0 53.14905527176052 18.265848062577618)"><path d="M-0.28 0.82 C4.36 5.94, 10.7 25.22, 28.39 31.25 C46.08 37.28, 92.89 36.25, 105.87 36.99 M1.78 0.2 C6.73 5.49, 13.37 27.05, 30.56 32.83 C47.74 38.61, 92.22 34.31, 104.88 34.89" stroke="#1e1e1e" stroke-width="4" fill="none"></path></g></g><mask></mask><g stroke-linecap="round"><g transform="translate(238.62156247214125 285.41641685966806) rotate(0 -59.080869072125324 16.84221637098193)"><path d="M-0.22 0.22 C-4.88 5.32, -8.72 25.35, -28.35 30.81 C-47.99 36.27, -103.02 32.33, -118.03 32.99 M-1.8 -0.72 C-6.49 4.54, -9.25 26.38, -28.74 32.16 C-48.23 37.94, -103.8 33.84, -118.73 33.95" stroke="#1e1e1e" stroke-width="4" fill="none"></path></g></g><mask></mask><g stroke-linecap="round"><g transform="translate(32.55617031821197 247.07396213489233) rotate(0 13.461140644365628 27.276516497843375)"><path d="M2.79 1.73 C3.85 6.85, 3.48 19.43, 7.64 28 C11.8 36.57, 24.75 48.87, 27.74 53.16 M0.86 0.21 C1.42 5.83, 1.07 21.08, 5.32 30.3 C9.57 39.51, 23.03 51.24, 26.38 55.51" stroke="#1e1e1e" stroke-width="4" fill="none"></path></g></g><mask></mask><g stroke-linecap="round"><g transform="translate(34.69915583627858 226.89320801478016) rotate(0 0.3542487223191415 3.542406143949165)"><path d="M0.5 0.44 C0.73 1.68, 0.86 6.48, 0.78 7.61 M-0.15 0.02 C0.03 1.03, -0.05 5.21, 0.22 6.56" stroke="#1e1e1e" stroke-width="4" fill="none"></path></g></g><mask></mask><g stroke-linecap="round"><g transform="translate(113.91292612077223 81.2366939152052) rotate(0 42.52733894186764 -3.068987533082378)"><path d="M-0.22 1.79 C7.61 1.65, 30.56 2.2, 45.15 0.3 C59.74 -1.6, 80.64 -8.01, 87.33 -9.61 M-3.79 0.29 C5.07 0.41, 35.27 4.43, 50.36 3.14 C65.45 1.85, 80.82 -5.66, 86.76 -7.43" stroke="#1e1e1e" stroke-width="4" fill="none"></path></g></g><mask></mask></svg>